<?xml version="1.0" encoding="UTF-8" standalone="no"?>
<svg width="100%" height="100%"
     viewBox="0 0 90 90" version="1.1" xmlns="http://www.w3.org/2000/svg" xml:space="preserve"
     style="fill-rule:evenodd;clip-rule:evenodd;stroke-linejoin:round;stroke-miterlimit:2;"><path d="M20.775,41.192l-20.775,11.994l0,23.996l20.775,11.996l20.781,-11.996l0,-23.996l-20.781,-11.994Zm0,10.024l12.098,6.983l0,13.972l-12.098,6.983l-12.099,-6.983l0,-13.972l12.099,-6.983Z" style="fill:white;fill-rule:nonzero;"/>
    <path d="M68.346,41.192l-20.78,11.994l0,23.996l20.78,11.996l20.774,-11.996l0,-23.996l-20.774,-11.994Zm0,10.024l12.098,6.983l0,13.972l-12.098,6.983l-12.106,-6.983l0,-13.972l12.106,-6.983Z"
          style="fill:white;fill-rule:nonzero;"/>
    <path d="M44.557,0l-20.773,11.996l0,23.989l20.773,12.001l20.781,-12.001l0,-23.989l-20.781,-11.996Zm0,10.016l12.105,6.99l0,13.973l-12.105,6.983l-12.099,-6.983l0,-13.973l12.099,-6.99Z"
          style="fill:white;fill-rule:nonzero;"/></svg>