<svg xmlns="http://www.w3.org/2000/svg" xmlns:xlink="http://www.w3.org/1999/xlink" width="0" height="0">
	<symbol id="plus" viewBox="0 0 341.4 341.4">
		<g>
			<polygon points="192,149.4 192,0 149.4,0 149.4,149.4 0,149.4 0,192 149.4,192 149.4,341.4 192,341.4 192,192 341.4,192
			341.4,149.4 		"/>
		</g>
	</symbol>
	<symbol id="arrow-right" viewBox="0 0 500 500">
		<g>
			<g>
				<path d="M506.134,241.843c-0.006-0.006-0.011-0.013-0.018-0.019l-104.504-104c-7.829-7.791-20.492-7.762-28.285,0.068
			c-7.792,7.829-7.762,20.492,0.067,28.284L443.558,236H20c-11.046,0-20,8.954-20,20c0,11.046,8.954,20,20,20h423.557
			l-70.162,69.824c-7.829,7.792-7.859,20.455-0.067,28.284c7.793,7.831,20.457,7.858,28.285,0.068l104.504-104
			c0.006-0.006,0.011-0.013,0.018-0.019C513.968,262.339,513.943,249.635,506.134,241.843z"/>
			</g>
		</g>
	</symbol>
	<symbol id="wp-logo" viewBox="0 0 252 252">
			<g enable-background="new">
				<g id="Layer-1" data-name="Layer">
				</g>
				<g id="Layer-1" data-name="Layer">
					<clipPath id="cp0">
						<path transform="matrix(1,0,0,-1,0,252)" d="M 0 252 L 252 252 L 252 0 L 0 0 Z "/>
					</clipPath>
					<g clip-path="url(#cp0)">
						<path transform="matrix(1,0,0,-1,201.1641,85.846698)" d="M 0 0 C 6.632 -12.101 10.406 -25.988 10.406 -40.76 C 10.406 -72.105 -6.581 -99.471 -31.84 -114.198 L -5.89 -39.168 C -1.043 -27.047 .571 -17.355 .571 -8.737 C .571 -5.609 .365 -2.706 0 0 M -62.846 -.925 C -57.731 -.656 -53.122 -.118 -53.122 -.118 C -48.544 .424 -49.084 7.152 -53.664 6.884 C -53.664 6.884 -67.426 5.804 -76.31 5.804 C -84.658 5.804 -98.686 6.884 -98.686 6.884 C -103.268 7.152 -103.805 .153 -99.225 -.118 C -99.225 -.118 -94.891 -.656 -90.313 -.925 L -77.077 -37.194 L -95.673 -92.957 L -126.611 -.925 C -121.492 -.656 -116.888 -.118 -116.888 -.118 C -112.313 .424 -112.853 7.152 -117.431 6.884 C -117.431 6.884 -131.19 5.804 -140.075 5.804 C -141.669 5.804 -143.548 5.843 -145.543 5.907 C -130.351 28.971 -104.239 44.202 -74.555 44.202 C -52.437 44.202 -32.297 35.745 -17.182 21.895 C -17.548 21.917 -17.905 21.963 -18.282 21.963 C -26.628 21.963 -32.55 14.693 -32.55 6.884 C -32.55 -.118 -28.51 -6.042 -24.204 -13.043 C -20.973 -18.702 -17.199 -25.971 -17.199 -36.475 C -17.199 -43.746 -19.996 -52.185 -23.664 -63.941 L -32.141 -92.256 Z M -74.555 -125.729 C -82.895 -125.729 -90.944 -124.506 -98.558 -122.267 L -73.063 -48.192 L -46.949 -119.741 C -46.777 -120.161 -46.566 -120.548 -46.341 -120.912 C -55.172 -124.021 -64.661 -125.729 -74.555 -125.729 M -159.517 -40.76 C -159.517 -28.442 -156.875 -16.749 -152.16 -6.183 L -111.631 -117.225 C -139.976 -103.455 -159.517 -74.39 -159.517 -40.76 M -74.555 53.737 C -126.662 53.737 -169.054 11.346 -169.054 -40.76 C -169.054 -92.868 -126.662 -135.264 -74.555 -135.264 C -22.449 -135.264 19.945 -92.868 19.945 -40.76 C 19.945 11.346 -22.449 53.737 -74.555 53.737 " fill="#464342"/>
					</g>
				</g>
			</g>
	</symbol>
	<symbol id="chevron-down" viewBox="0 0 404.257 404.257">
		<polygon xmlns="http://www.w3.org/2000/svg" points="386.257,114.331 202.128,252.427 18,114.331 0,138.331 202.128,289.927 404.257,138.331 "/>
	</symbol>
</svg>
