<svg xmlns="http://www.w3.org/2000/svg" xmlns:xlink="http://www.w3.org/1999/xlink" width="0" height="0">
    <symbol id="plus" viewBox="0 0 341.4 341.4">
        <g>
            <polygon points="192,149.4 192,0 149.4,0 149.4,149.4 0,149.4 0,192 149.4,192 149.4,341.4 192,341.4 192,192 341.4,192
			341.4,149.4 		"/>
        </g>
    </symbol>
    <symbol id="arrow-right" viewBox="0 0 500 500">
        <g>
            <g>
                <path d="M506.134,241.843c-0.006-0.006-0.011-0.013-0.018-0.019l-104.504-104c-7.829-7.791-20.492-7.762-28.285,0.068
			c-7.792,7.829-7.762,20.492,0.067,28.284L443.558,236H20c-11.046,0-20,8.954-20,20c0,11.046,8.954,20,20,20h423.557
			l-70.162,69.824c-7.829,7.792-7.859,20.455-0.067,28.284c7.793,7.831,20.457,7.858,28.285,0.068l104.504-104
			c0.006-0.006,0.011-0.013,0.018-0.019C513.968,262.339,513.943,249.635,506.134,241.843z"/>
            </g>
        </g>
    </symbol>
    <symbol id="wp-logo" viewBox="0 0 252 252">
        <g enable-background="new">
            <g id="Layer-1" data-name="Layer">
            </g>
            <g id="Layer-1" data-name="Layer">
                <clipPath id="cp0">
                    <path transform="matrix(1,0,0,-1,0,252)" d="M 0 252 L 252 252 L 252 0 L 0 0 Z "/>
                </clipPath>
                <g clip-path="url(#cp0)">
                    <path transform="matrix(1,0,0,-1,201.1641,85.846698)"
                          d="M 0 0 C 6.632 -12.101 10.406 -25.988 10.406 -40.76 C 10.406 -72.105 -6.581 -99.471 -31.84 -114.198 L -5.89 -39.168 C -1.043 -27.047 .571 -17.355 .571 -8.737 C .571 -5.609 .365 -2.706 0 0 M -62.846 -.925 C -57.731 -.656 -53.122 -.118 -53.122 -.118 C -48.544 .424 -49.084 7.152 -53.664 6.884 C -53.664 6.884 -67.426 5.804 -76.31 5.804 C -84.658 5.804 -98.686 6.884 -98.686 6.884 C -103.268 7.152 -103.805 .153 -99.225 -.118 C -99.225 -.118 -94.891 -.656 -90.313 -.925 L -77.077 -37.194 L -95.673 -92.957 L -126.611 -.925 C -121.492 -.656 -116.888 -.118 -116.888 -.118 C -112.313 .424 -112.853 7.152 -117.431 6.884 C -117.431 6.884 -131.19 5.804 -140.075 5.804 C -141.669 5.804 -143.548 5.843 -145.543 5.907 C -130.351 28.971 -104.239 44.202 -74.555 44.202 C -52.437 44.202 -32.297 35.745 -17.182 21.895 C -17.548 21.917 -17.905 21.963 -18.282 21.963 C -26.628 21.963 -32.55 14.693 -32.55 6.884 C -32.55 -.118 -28.51 -6.042 -24.204 -13.043 C -20.973 -18.702 -17.199 -25.971 -17.199 -36.475 C -17.199 -43.746 -19.996 -52.185 -23.664 -63.941 L -32.141 -92.256 Z M -74.555 -125.729 C -82.895 -125.729 -90.944 -124.506 -98.558 -122.267 L -73.063 -48.192 L -46.949 -119.741 C -46.777 -120.161 -46.566 -120.548 -46.341 -120.912 C -55.172 -124.021 -64.661 -125.729 -74.555 -125.729 M -159.517 -40.76 C -159.517 -28.442 -156.875 -16.749 -152.16 -6.183 L -111.631 -117.225 C -139.976 -103.455 -159.517 -74.39 -159.517 -40.76 M -74.555 53.737 C -126.662 53.737 -169.054 11.346 -169.054 -40.76 C -169.054 -92.868 -126.662 -135.264 -74.555 -135.264 C -22.449 -135.264 19.945 -92.868 19.945 -40.76 C 19.945 11.346 -22.449 53.737 -74.555 53.737 "
                          fill="#464342"/>
                </g>
            </g>
        </g>
    </symbol>
    <symbol id="chevron-down" viewBox="0 0 404.257 404.257">
        <polygon xmlns="http://www.w3.org/2000/svg"
                 points="386.257,114.331 202.128,252.427 18,114.331 0,138.331 202.128,289.927 404.257,138.331 "/>
    </symbol>
    <symbol id="cookiees" viewBox="0 0 512 512">
        <g>
            <g>
                <path d="M143.777,136.275c-21.816,0-39.564,17.749-39.564,39.564c0,21.815,17.749,39.564,39.564,39.564
			c21.816,0,39.565-17.749,39.565-39.564C183.341,154.024,165.592,136.275,143.777,136.275z M143.777,200.404
			c-13.545,0-24.564-11.02-24.564-24.564s11.02-24.564,24.564-24.564s24.565,11.02,24.565,24.564S157.321,200.404,143.777,200.404z"
                />
            </g>
        </g>
        <g>
            <g>
                <path d="M312.113,320.646c-21.815,0-39.564,17.748-39.564,39.564c0,21.816,17.749,39.564,39.564,39.564
			s39.564-17.749,39.564-39.564C351.677,338.395,333.928,320.646,312.113,320.646z M312.114,384.772
			c-13.544,0-24.564-11.02-24.564-24.564s11.019-24.564,24.564-24.564s24.564,11.02,24.564,24.564S325.658,384.772,312.114,384.772z
			"/>
            </g>
        </g>
        <g>
            <g>
                <path d="M159.808,304.613c-17.396,0-31.548,14.153-31.548,31.549c0,17.396,14.152,31.548,31.548,31.548
			c17.396,0,31.549-14.152,31.549-31.548C191.357,318.766,177.204,304.613,159.808,304.613z M159.808,352.71
			c-9.125,0-16.548-7.423-16.548-16.548s7.423-16.549,16.548-16.549c9.125,0,16.549,7.424,16.549,16.549
			S168.933,352.71,159.808,352.71z"/>
            </g>
        </g>
        <g>
            <g>
                <path d="M247.986,192.388c-12.975,0-23.532,10.557-23.532,23.532c0,12.976,10.557,23.532,23.532,23.532
			c12.975,0,23.532-10.557,23.532-23.532C271.517,202.945,260.961,192.388,247.986,192.388z M247.986,224.452
			c-4.704,0-8.532-3.828-8.532-8.532c0-4.704,3.827-8.532,8.532-8.532c4.705,0,8.532,3.828,8.532,8.532
			C256.518,220.624,252.69,224.452,247.986,224.452z"/>
            </g>
        </g>
        <g>
            <g>
                <path d="M406.999,324.791l-8.016-16.033c-1.852-3.705-6.357-5.208-10.062-3.354c-3.705,1.852-5.207,6.357-3.354,10.062
			l8.016,16.033c1.314,2.629,3.962,4.148,6.714,4.148c1.127,0,2.271-0.255,3.348-0.793
			C407.35,333.001,408.852,328.497,406.999,324.791z"/>
            </g>
        </g>
        <g>
            <g>
                <path d="M334.854,268.679c-1.853-3.705-6.356-5.208-10.062-3.354l-16.032,8.016c-3.705,1.852-5.207,6.357-3.354,10.062
			c1.314,2.628,3.962,4.147,6.714,4.147c1.127,0,2.271-0.255,3.348-0.793l16.032-8.016
			C335.205,276.889,336.707,272.384,334.854,268.679z"/>
            </g>
        </g>
        <g>
            <g>
                <path d="M102.388,260.662l-8.016-16.032c-1.852-3.705-6.357-5.208-10.062-3.354c-3.705,1.852-5.207,6.357-3.354,10.062
			l8.016,16.032c1.314,2.628,3.962,4.147,6.714,4.147c1.127,0,2.271-0.255,3.348-0.793
			C102.739,268.872,104.241,264.367,102.388,260.662z"/>
            </g>
        </g>
        <g>
            <g>
                <path d="M222.63,396.935c-1.852-3.705-6.357-5.207-10.062-3.354l-16.032,8.016c-3.705,1.852-5.207,6.357-3.354,10.062
			c1.314,2.628,3.962,4.147,6.714,4.147c1.127,0,2.271-0.255,3.348-0.793l16.032-8.016
			C222.981,405.145,224.483,400.64,222.63,396.935z"/>
            </g>
        </g>
        <g>
            <g>
                <path d="M221.225,90.376l-8.016-8.017c-2.928-2.929-7.677-2.929-10.606,0c-2.929,2.929-2.929,7.677,0,10.606l8.017,8.017
			c1.464,1.465,3.384,2.197,5.303,2.197c1.919,0,3.839-0.732,5.303-2.197C224.154,98.054,224.154,93.306,221.225,90.376z"/>
            </g>
        </g>
        <g>
            <g>
                <path d="M205.192,274.745l-8.016-8.016c-2.928-2.929-7.677-2.929-10.606,0c-2.929,2.929-2.929,7.678,0,10.606l8.016,8.016
			c1.464,1.464,3.384,2.197,5.303,2.197c1.919,0,3.839-0.732,5.303-2.197C208.121,282.422,208.121,277.673,205.192,274.745z"/>
            </g>
        </g>
        <g>
            <g>
                <path d="M288.066,432.87c-4.142,0-7.5,3.358-7.5,7.5v8.016c0,4.142,3.358,7.5,7.5,7.5s7.5-3.358,7.5-7.5v-8.016
			C295.566,436.228,292.208,432.87,288.066,432.87z"/>
            </g>
        </g>
        <g>
            <g>
                <path d="M253.289,130.457c-2.929-2.929-7.678-2.929-10.606,0l-8.016,8.016c-2.929,2.929-2.929,7.678,0,10.606
			c1.464,1.464,3.384,2.197,5.303,2.197c1.919,0,3.839-0.733,5.303-2.197l8.016-8.016
			C256.218,138.134,256.218,133.385,253.289,130.457z"/>
            </g>
        </g>
        <g>
            <g>
                <path d="M430.049,46.013c-8.312-7.935-19.844-10.7-30.85-7.398l-25.318,7.596c-11.435,3.43-20.092,13.255-22.054,25.031
			l-2.3,13.799c-2.472,14.839,5.957,29.444,20.043,34.726l20.361,7.636c3.576,1.341,7.328,2.006,11.072,2.006
			c5.059,0,10.103-1.214,14.672-3.614c7.951-4.175,13.761-11.567,15.939-20.28l7.257-29.03
			C441.658,65.338,438.36,53.947,430.049,46.013z M424.32,72.846l-7.257,29.03c-1.16,4.638-4.129,8.416-8.361,10.638
			c-4.232,2.222-9.027,2.522-13.504,0.844l-20.361-7.636c-7.389-2.771-11.81-10.431-10.513-18.215l2.3-13.799
			c1.029-6.177,5.57-11.331,11.568-13.13l25.318-7.596c1.604-0.481,3.229-0.716,4.833-0.716c4.17,0,8.2,1.591,11.349,4.597
			C424.051,61.024,425.781,66.999,424.32,72.846z"/>
            </g>
        </g>
        <g>
            <g>
                <path d="M481.551,179.395c-0.756-6.47-4.042-12.187-9.254-16.095l-10.637-7.978c-7.176-5.383-16.619-6.235-24.644-2.222
			l-9.68,4.84c-11.129,5.564-16.007,18.881-11.106,30.318l7.789,18.173c3.251,7.584,10.066,12.824,18.231,14.016
			c1.16,0.169,2.317,0.252,3.464,0.252c6.926,0,13.479-3.035,18.012-8.473l12.53-15.036
			C480.426,192.185,482.307,185.865,481.551,179.395z M464.732,187.587l-12.53,15.036c-1.944,2.333-4.783,3.419-7.787,2.98
			c-3.005-0.438-5.414-2.291-6.61-5.082l-7.789-18.173c-1.777-4.147-0.008-8.976,4.027-10.993l9.683-4.839
			c1.217-0.609,2.524-0.909,3.824-0.909c1.806,0,3.597,0.58,5.11,1.714l10.637,7.978c1.89,1.417,3.082,3.49,3.355,5.836
			C466.925,183.481,466.244,185.773,464.732,187.587z"/>
            </g>
        </g>
        <g>
            <g>
                <path d="M488.468,88.18c-12.975,0-23.532,10.557-23.532,23.532c0,12.975,10.556,23.532,23.532,23.532S512,124.686,512,111.711
			C512,98.737,501.443,88.18,488.468,88.18z M488.468,120.243c-4.704,0-8.532-3.828-8.532-8.532c0-4.704,3.827-8.532,8.532-8.532
			s8.532,3.828,8.532,8.532C497,116.415,493.172,120.243,488.468,120.243z"/>
            </g>
        </g>
        <g>
            <g>
                <path d="M504.446,284.35c-3.53-3.584-8.64-5.282-13.671-4.543c-3.424,0.502-6.897,0.757-10.323,0.757
			c-31.672,0-59.458-20.258-69.146-50.412c-2.649-8.243-9.433-14.342-17.704-15.917c-56.806-10.815-98.036-60.676-98.036-118.558
			c0-23.902,7-47.026,20.245-66.87c2.905-4.353,3.45-9.817,1.458-14.617c-1.996-4.809-6.261-8.288-11.408-9.307
			c-25.516-5.053-51.697-6.19-77.811-3.377C175.79,7.133,127.081,28.688,87.187,63.844c-3.108,2.738-3.407,7.478-0.668,10.585
			c2.738,3.107,7.478,3.407,10.585,0.668c37.556-33.095,83.391-53.385,132.551-58.676c24.608-2.65,49.267-1.58,73.292,3.178
			c0.175,0.035,0.368,0.103,0.468,0.343c0.094,0.227,0.017,0.394-0.081,0.54c-14.895,22.318-22.768,48.321-22.768,75.196
			c0,65.076,46.359,121.133,110.23,133.293c2.874,0.547,5.261,2.758,6.229,5.77c11.688,36.38,45.215,60.823,83.427,60.823
			c4.153,0,8.359-0.309,12.502-0.917c0.553-0.082,0.835,0.245,0.847,0.328c-7.23,44.46-26.873,85.965-56.805,120.03
			c-2.734,3.112-2.428,7.851,0.684,10.585c1.424,1.251,3.19,1.866,4.948,1.866c2.083,0,4.154-0.862,5.637-2.549
			c31.793-36.184,52.659-80.28,60.341-127.523C509.389,292.58,507.873,287.83,504.446,284.35z"/>
            </g>
        </g>
        <g>
            <g>
                <path d="M425.595,437.681c-2.735-3.109-7.475-3.412-10.585-0.676c-43.976,38.688-100.446,59.994-159.009,59.994
			c-33.757,0-66.405-6.84-97.038-20.332c-29.596-13.034-55.911-31.618-78.212-55.235c-22.266-23.579-39.282-50.858-50.576-81.08
			c-11.744-31.428-16.711-64.588-14.764-98.559c3.035-52.954,24.24-104.336,59.708-144.683c2.735-3.111,2.43-7.85-0.681-10.584
			c-3.11-2.735-7.85-2.431-10.584,0.681c-37.67,42.85-60.192,97.444-63.418,153.728c-2.067,36.063,3.211,71.278,15.689,104.668
			c11.999,32.108,30.073,61.086,53.721,86.127c23.685,25.082,51.635,44.819,83.072,58.665
			c32.55,14.335,67.232,21.603,103.083,21.603c62.211,0,122.201-22.634,168.917-63.732
			C428.028,445.53,428.331,440.791,425.595,437.681z"/>
            </g>
        </g>
    </symbol>
    <symbol id="cookies" viewBox="0 0 512.002 512.002">
        <g>
            <g>
                <path d="M501.791,236.285c-32.933-11.827-53.189-45.342-50.644-71.807c0-4.351-2.607-8.394-5.903-11.25
			c-3.296-2.842-8.408-4.072-12.686-3.384c-50.186,7.363-96.14-29.352-100.693-80.962c-0.41-4.658-2.959-8.848-6.914-11.353
			c-3.94-2.49-8.848-3.032-13.198-1.406C271.074,71.02,232.637,44.084,217.3,8.986c-2.871-6.563-9.99-10.181-17.007-8.628
			C84.82,26.125,0.001,137.657,0.001,256.002c0,140.61,115.39,256,256,256s256-115.39,256-256
			C511.584,247.068,511.522,239.771,501.791,236.285z M105.251,272.131c-8.284,0-15-6.716-15-15c0-8.286,6.716-15,15-15
			s15,6.714,15,15C120.251,265.415,113.534,272.131,105.251,272.131z M166.001,391.002c-24.814,0-45-20.186-45-45
			c0-24.814,20.186-45,45-45c24.814,0,45,20.186,45,45C211.001,370.816,190.816,391.002,166.001,391.002z M181.001,211.002
			c-16.538,0-30-13.462-30-30c0-16.538,13.462-30,30-30c16.538,0,30,13.462,30,30C211.001,197.54,197.539,211.002,181.001,211.002z
			 M301.001,421.002c-16.538,0-30-13.462-30-30c0-16.538,13.462-30,30-30c16.538,0,30,13.462,30,30
			C331.001,407.54,317.539,421.002,301.001,421.002z M316.001,301.002c-24.814,0-45-20.186-45-45c0-24.814,20.186-45,45-45
			c24.814,0,45,20.186,45,45C361.001,280.816,340.816,301.002,316.001,301.002z M405.251,332.131c-8.284,0-15-6.716-15-15
			c0-8.286,6.716-15,15-15s15,6.714,15,15C420.251,325.415,413.534,332.131,405.251,332.131z"/>
            </g>
        </g>
    </symbol>
</svg>
